<svg width="115" height="28" viewBox="0 0 115 28" fill="none" xmlns="http://www.w3.org/2000/svg">
<path d="M26.1937 19.837C25.3822 24.4347 21.236 27.9967 15.2363 27.9967H0L4.93561 0.00299072H19.253C25.2117 0.00299072 27.9842 3.32181 27.2958 7.24061C26.7243 10.4805 24.5991 12.3183 22.8844 13.1993C24.3654 13.8783 26.8758 15.9592 26.1937 19.837ZM12.6879 6.40064L11.9111 10.7994H15.1889C16.6288 10.7994 17.7562 9.83946 17.9772 8.59846C18.1983 7.35745 17.4057 6.39749 15.9657 6.39749H12.6879V6.40064ZM14.1279 21.5959C15.7289 21.5959 16.9983 20.5159 17.2446 19.117C17.4909 17.7181 16.6099 16.5971 15.0089 16.5971H10.8912L10.0101 21.5959H14.1279Z" fill="white" style="fill:white;fill-opacity:1;"/>
<path d="M43.4289 27.9967L40.0722 19.597H38.2722L36.7913 27.9967H27.9147L32.8503 0.00299072H46.2488C52.7285 0.00299072 56.1863 4.20283 55.1979 9.80157C54.5979 13.1993 52.3528 15.9592 48.9708 17.6802L53.1896 27.9967H43.4289ZM40.0911 7.00062L39.068 12.7983H42.5479C44.3889 12.7983 45.8004 11.5983 46.1035 9.87735C46.4004 8.19742 45.412 6.99746 43.571 6.99746H40.0911V7.00062Z" fill="white" style="fill:white;fill-opacity:1;"/>
<path d="M78.436 0H87.1136L82.1779 27.9937H73.6204L67.0112 13.3163L64.4218 27.9937H55.7442L60.6798 0H69.1995L75.8498 14.6773L78.4391 0H78.436Z" fill="white" style="fill:white;fill-opacity:1;"/>
<path d="M86.6557 27.9967L91.5913 0.00299072H102.59C111.229 0.00299072 116.168 6.00276 114.76 14.0014C113.348 22 106.294 27.9998 97.6542 27.9998H86.6557V27.9967ZM96.909 20.197H99.0278C102.148 20.197 105.252 17.5571 105.88 13.9983C106.502 10.4805 104.333 7.79954 101.213 7.79954H99.0941L96.909 20.197Z" fill="white" style="fill:white;fill-opacity:1;"/>
</svg>
